<?xml version="1.0" standalone="no"?>
<!DOCTYPE svg PUBLIC "-//W3C//DTD SVG 20010904//EN"
 "http://www.w3.org/TR/2001/REC-SVG-20010904/DTD/svg10.dtd">
<svg version="1.0" xmlns="http://www.w3.org/2000/svg"
 width="427.000000pt" height="427.000000pt" viewBox="0 0 427.000000 427.000000"
 preserveAspectRatio="xMidYMid meet">

<g transform="translate(0.000000,427.000000) scale(0.100000,-0.100000)"
fill="#000000" stroke="none">
<path d="M2030 3545 c-34 -36 -64 -65 -65 -63 -1 2 -6 16 -11 31 l-9 28 -84
-66 c-94 -73 -94 -73 -112 18 -6 31 -15 57 -19 57 -11 0 -128 -128 -148 -162
-9 -16 -19 -28 -22 -27 -3 0 -31 31 -64 69 -32 38 -62 67 -67 64 -18 -11 -8
-58 30 -140 42 -89 41 -96 -11 -109 -22 -6 -32 0 -62 32 -19 21 -36 42 -36 46
0 5 12 24 26 43 l26 34 -65 -4 c-37 -2 -70 -6 -74 -9 -4 -2 -33 -12 -63 -22
-252 -81 -565 -357 -793 -698 -178 -266 -265 -516 -274 -792 l-4 -140 34 82
c49 119 93 187 176 275 201 212 413 255 569 114 80 -72 105 -130 163 -376 3
-13 -26 -16 -208 -20 l-212 -5 119 -83 c68 -46 120 -90 120 -99 0 -27 -51
-316 -58 -327 -3 -6 -57 -79 -119 -163 -62 -84 -113 -155 -113 -158 0 -4 10
-3 23 1 12 4 129 35 261 69 l238 62 10 -28 c5 -16 14 -29 20 -29 5 0 73 18
150 41 l140 40 56 -63 c143 -160 319 -305 516 -425 l119 -72 56 31 c228 127
450 306 609 491 l32 38 139 -40 c76 -23 143 -41 149 -41 5 0 15 14 22 31 9 21
17 28 29 24 32 -13 526 -152 529 -150 2 2 -36 54 -85 117 -187 238 -170 207
-198 369 -14 79 -25 151 -25 159 1 8 50 58 110 110 l109 95 -204 3 c-113 1
-205 6 -205 10 0 34 66 256 87 291 35 60 102 123 160 152 74 36 186 33 273 -8
167 -78 316 -242 386 -426 42 -109 47 -106 41 23 -8 151 -30 271 -74 403 -158
477 -633 1000 -1013 1115 -81 24 -180 37 -180 23 0 -5 4 -12 9 -16 15 -9 58
-90 77 -147 22 -63 25 -213 5 -270 -10 -31 -16 -36 -29 -29 -30 15 -255 88
-331 106 -54 13 -89 29 -125 57 -28 21 -84 55 -123 74 -90 44 -94 62 -28 131
25 25 45 48 45 49 0 1 -17 -2 -37 -7 -44 -10 -177 -12 -221 -3 -26 5 -30 11
-35 46 -3 22 -1 81 3 131 5 50 8 93 6 94 -1 2 -31 -26 -66 -62z m10 -104 c0
-38 -4 -43 -135 -152 -74 -62 -133 -114 -132 -116 5 -5 152 72 165 87 9 10 11
10 6 1 -5 -10 -1 -11 16 -6 61 19 92 37 83 46 -7 7 -23 3 -47 -11 -20 -12 -36
-20 -36 -17 0 5 77 57 84 57 2 0 7 -12 10 -27 5 -18 0 -39 -16 -69 -20 -39
-33 -48 -131 -94 -59 -27 -112 -50 -118 -50 -5 0 -9 -5 -9 -11 0 -5 4 -8 9 -4
5 3 58 9 118 14 94 8 110 7 121 -7 20 -26 14 -32 -33 -32 -26 0 -59 -7 -75
-15 -33 -17 -70 -61 -70 -84 -1 -17 -21 -43 -58 -75 -22 -19 -22 -19 -16 -1 5
13 4 16 -4 11 -7 -4 -12 -13 -12 -20 0 -7 -27 -25 -60 -41 -33 -16 -68 -37
-77 -47 -22 -25 -33 -23 -33 6 0 14 -4 28 -10 31 -6 4 -10 -6 -10 -23 0 -61
-32 -122 -104 -199 -47 -50 -56 -53 -56 -16 l0 26 -35 -36 c-20 -20 -45 -42
-57 -48 -18 -10 -20 -9 -14 7 3 11 -6 5 -21 -13 -33 -38 -81 -59 -97 -43 -8 8
-5 9 9 4 19 -7 18 -6 -2 18 -18 18 -23 36 -23 75 0 48 2 52 42 79 37 26 50 29
120 29 43 0 78 3 78 6 0 13 -91 31 -122 25 l-33 -6 37 35 c41 38 84 45 133 23
20 -9 25 -19 26 -47 l1 -36 9 43 c14 74 30 95 94 127 59 29 60 31 63 75 2 28
11 51 23 63 21 20 27 94 9 127 -8 15 -6 17 9 13 17 -4 81 21 81 33 0 2 -14 -3
-31 -11 -17 -9 -33 -14 -36 -11 -3 2 9 12 26 21 17 8 31 20 31 25 0 5 -15 1
-32 -10 -47 -29 -65 -25 -29 6 42 35 57 63 40 78 -9 8 -10 8 -4 -4 8 -13 7
-13 -9 0 -11 9 -14 16 -7 18 21 7 41 -7 55 -40 l14 -33 1 30 c1 17 -6 41 -15
54 -15 21 -22 22 -69 16 -64 -8 -83 9 -28 24 21 6 72 13 113 16 69 6 73 5 56
-9 -11 -9 -17 -19 -13 -22 7 -8 114 68 182 130 28 25 51 45 53 46 1 0 2 -18 2
-39z m-355 -31 c-14 -22 -23 -46 -19 -53 4 -7 4 -9 -1 -5 -4 4 -17 1 -29 -7
-37 -27 -49 -18 -25 18 33 48 93 109 97 98 2 -5 -8 -28 -23 -51z m242 45 c0
-8 -19 -31 -41 -52 l-41 -38 34 38 c45 47 29 49 -20 1 -21 -20 -43 -34 -49
-32 -11 3 94 98 109 98 4 0 8 -7 8 -15z m-428 -56 c42 -47 43 -50 25 -64 -26
-20 -29 -19 -43 11 -9 20 -9 30 0 40 9 12 9 13 -3 9 -11 -4 -19 3 -26 24 -15
42 -5 38 47 -20z m219 -31 c-7 -4 -20 -7 -28 -7 -9 0 -6 4 7 9 16 6 20 15 17
32 -4 23 -4 23 6 -1 8 -18 7 -26 -2 -33z m-411 -38 c7 -11 9 -21 3 -25 -9 -6
-13 -1 -23 28 -9 23 5 22 20 -3z m1744 -16 c10 -6 -17 -44 -31 -44 -4 0 -19
18 -33 39 l-27 40 41 -14 c22 -8 45 -17 50 -21z m-1777 -1 c4 -9 0 -23 -9 -32
-13 -14 -17 -14 -32 2 -17 17 -17 19 1 33 25 18 32 18 40 -3z m306 -8 l23 -24
-24 -25 -23 -24 -23 31 c-21 29 -22 32 -6 49 21 23 25 23 53 -7z m-219 -33
c39 -43 41 -50 23 -78 -15 -22 -19 -23 -26 -10 -5 10 -4 24 2 37 7 11 8 24 4
27 -4 4 -9 1 -11 -5 -7 -19 -21 -16 -33 8 -12 21 -7 49 8 49 5 0 20 -12 33
-28z m903 8 c-37 -88 -36 -91 83 -150 126 -63 186 -110 139 -110 -7 0 -19 -6
-25 -14 -15 -18 3 -64 65 -162 46 -75 54 -95 29 -74 -12 10 -16 8 -24 -11 -8
-23 -9 -22 -16 11 -8 39 -54 134 -91 190 -16 24 -22 43 -18 55 6 14 4 17 -9
12 -9 -3 -19 -1 -23 5 -5 7 -2 8 7 3 21 -12 2 6 -25 24 -57 38 -186 154 -180
162 3 5 2 8 -3 7 -19 -5 -53 15 -53 31 0 9 -4 21 -10 27 -6 6 19 10 75 9 72 0
84 -2 79 -15z m-1043 -14 c24 -21 26 -30 33 -147 12 -206 20 -265 38 -286 20
-22 18 -52 -4 -64 -12 -7 -20 2 -37 41 -27 64 -58 201 -68 308 l-8 82 -100
-66 c-160 -106 -261 -189 -396 -323 -164 -164 -275 -312 -354 -470 -56 -110
-52 -78 4 42 141 301 351 566 595 749 87 65 241 158 261 158 6 0 22 -11 36
-24z m1936 -8 c37 -18 74 -38 83 -45 8 -7 53 -40 100 -75 105 -76 296 -266
377 -373 86 -115 124 -176 196 -321 75 -150 98 -216 35 -99 -158 292 -418 567
-743 785 -57 39 -106 70 -108 70 -2 0 -7 -48 -10 -107 -11 -212 -106 -409
-297 -616 -84 -90 -102 -102 -130 -87 -19 10 -14 17 67 99 94 93 197 231 243
321 71 143 92 300 56 418 -4 11 6 25 27 39 17 12 33 22 34 22 2 1 33 -14 70
-31z m-1509 -5 c15 -9 29 -18 31 -20 7 -5 -42 -53 -55 -53 -6 0 -22 8 -34 18
l-21 17 21 28 c25 32 23 32 58 10z m-78 -89 c0 -15 -11 -25 -41 -37 -23 -9
-47 -14 -53 -10 -6 3 -8 3 -5 -1 4 -4 -6 -19 -21 -34 -15 -15 -37 -53 -49 -86
-12 -32 -34 -74 -49 -94 -15 -20 -22 -33 -16 -29 16 9 28 -24 14 -37 -8 -8
-18 -3 -36 17 -29 34 -30 56 -6 88 11 13 33 54 51 91 21 44 42 73 61 85 17 9
30 21 30 25 0 12 -13 10 -38 -8 -20 -14 -22 -14 -22 3 0 23 25 60 50 73 16 9
19 8 13 -7 -3 -11 7 -6 28 14 l33 32 28 -32 c15 -18 27 -41 28 -53z m1685 66
c3 -5 1 -10 -4 -10 -6 0 -11 5 -11 10 0 6 2 10 4 10 3 0 8 -4 11 -10z m-1918
-47 c40 -67 42 -76 28 -93 -7 -8 -23 -39 -35 -68 -16 -36 -26 -50 -33 -43 -18
18 -11 251 8 251 1 0 16 -21 32 -47z m829 -15 l56 -42 -5 -61 c-4 -57 -31
-135 -46 -135 -3 0 -17 34 -30 75 -13 41 -34 86 -47 100 -24 26 -29 51 -18 93
8 28 17 25 90 -30z m-541 -19 c11 -17 -1 -21 -15 -4 -8 9 -8 15 -2 15 6 0 14
-5 17 -11z m1578 -136 c49 -205 67 -357 66 -548 -1 -148 -19 -307 -35 -312 -7
-2 -16 22 -24 59 -6 34 -22 89 -34 122 -18 47 -27 60 -45 61 -19 2 -29 -12
-64 -82 -23 -45 -45 -83 -49 -83 -5 0 -8 23 -8 50 0 28 -3 50 -7 50 -5 0 -21
-42 -36 -93 -42 -137 -44 -140 -46 -72 -1 33 -5 74 -10 90 -8 27 -9 28 -16 10
-15 -44 -59 -135 -65 -135 -4 0 -12 24 -19 54 -12 54 -53 129 -84 155 -15 12
-10 21 55 90 88 94 161 191 221 296 49 84 97 201 97 235 0 91 57 -139 95 -384
8 -54 18 -138 22 -187 3 -50 10 -92 15 -95 10 -7 10 1 -2 171 -16 221 -53 428
-94 526 -8 19 -14 65 -15 102 l0 68 28 -20 c23 -17 32 -36 54 -128z m-2056 65
c-2 -40 -16 -111 -31 -158 -38 -120 -65 -309 -71 -490 l-4 -155 14 123 c22
195 78 506 102 572 3 8 11 -13 18 -46 7 -34 25 -90 40 -125 15 -35 27 -72 27
-82 -1 -23 -45 -59 -91 -73 -45 -13 -50 -41 -26 -131 21 -78 43 -100 83 -84
19 8 37 9 53 3 13 -5 56 -15 95 -21 66 -11 75 -11 111 7 l38 20 94 -59 c51
-32 108 -64 127 -71 41 -15 42 -19 7 -36 -57 -26 -124 -102 -146 -166 -8 -22
-26 -45 -44 -57 l-32 -20 -32 43 c-17 24 -50 81 -73 128 l-41 85 -7 -45 c-3
-25 -7 -65 -8 -90 -1 -42 -3 -38 -39 70 -39 118 -46 122 -53 32 -3 -31 -5 -28
-47 50 -38 72 -47 83 -69 82 -29 -1 -51 -45 -77 -161 -16 -67 -26 -85 -39 -65
-2 4 -10 80 -17 169 -15 189 -3 370 37 573 32 162 50 219 71 236 31 23 35 16
30 -58z m499 -21 c-9 -52 -10 -54 -49 -62 -51 -11 -76 -32 -103 -89 -22 -48
-54 -76 -84 -76 -5 0 -20 12 -34 27 l-25 26 33 39 c18 21 38 55 45 75 17 51
39 77 97 110 l48 29 39 -20 c38 -19 39 -20 33 -59z m374 63 c0 -5 -2 -10 -4
-10 -3 0 -8 5 -11 10 -3 6 -1 10 4 10 6 0 11 -4 11 -10z m-33 -6 c-3 -3 -12
-4 -19 -1 -8 3 -5 6 6 6 11 1 17 -2 13 -5z m-953 -119 c-60 -224 -72 -544 -29
-780 l6 -30 -15 26 c-17 30 -68 204 -86 291 -11 54 -12 57 -35 48 -23 -9 -56
-7 -75 5 -10 6 -53 -57 -82 -122 -10 -24 -20 -43 -22 -43 -2 0 2 31 9 70 7 38
8 67 4 64 -5 -3 -30 -41 -56 -85 -48 -79 -48 -80 -51 -45 -2 18 4 61 12 94 20
75 20 70 -8 65 -30 -6 -69 -47 -186 -193 -50 -63 -95 -115 -100 -115 -4 0 -12
-4 -17 -9 -5 -5 -3 -6 5 -2 20 12 14 -4 -25 -58 -59 -82 -59 -77 3 44 105 206
233 378 425 570 103 104 337 306 344 298 2 -2 -8 -43 -21 -93z m1065 55 c6
-19 7 -30 2 -25 -5 6 -13 24 -17 40 -9 39 0 30 15 -15z m1169 3 c338 -270 569
-537 717 -828 72 -142 84 -179 31 -95 -19 30 -32 58 -29 62 2 5 0 7 -4 6 -5
-2 -51 52 -102 120 -119 157 -193 238 -220 238 -17 0 -20 -5 -14 -21 15 -47
23 -93 23 -135 l0 -45 -51 85 c-28 47 -53 87 -56 90 -5 5 0 -40 13 -115 4 -21
-6 -8 -31 40 -50 96 -49 95 -115 95 l-58 0 -7 -47 c-17 -113 -80 -313 -99
-313 -2 0 1 21 6 48 16 88 25 313 17 440 -8 123 -33 267 -63 365 -8 26 -12 47
-9 47 2 0 26 -17 51 -37z m-948 -20 c24 -27 58 -72 78 -100 l35 -53 -24 -72
c-16 -50 -35 -86 -60 -112 l-37 -40 -20 41 c-31 60 -130 180 -197 241 -33 28
-54 52 -48 52 20 0 163 -152 214 -228 67 -101 76 -102 65 -8 -7 53 -8 54 -39
52 -30 -1 -31 0 -41 58 -10 52 -13 57 -25 43 -7 -10 -19 -17 -26 -17 -27 0
-21 26 17 69 24 28 41 58 44 83 4 21 10 38 14 38 5 0 27 -21 50 -47z m-235
-33 c14 -5 5 -7 -28 -5 -26 1 -51 5 -54 9 -9 9 59 6 82 -4z m-96 -24 c43 -23
91 -83 91 -114 0 -32 -18 -99 -28 -106 -4 -2 -8 10 -9 28 -1 18 -8 47 -16 66
l-15 35 1 -50 c0 -63 -8 -123 -18 -133 -4 -4 -4 4 0 18 7 22 4 20 -26 -11 -46
-49 -114 -81 -260 -124 -146 -43 -197 -64 -223 -94 -27 -29 -12 -26 39 9 24
17 47 30 52 30 4 0 -19 -18 -52 -40 l-60 -40 -3 37 c-5 55 22 73 206 132 139
45 165 56 191 86 31 36 46 84 39 126 -5 27 -9 20 -27 -48 -19 -69 -28 -50 -19
38 16 145 60 195 137 155z m623 -86 c85 -22 288 -92 288 -99 0 -6 -67 -112
-91 -143 -3 -5 -43 5 -89 20 l-83 28 -17 50 c-9 28 -31 76 -49 109 -22 38 -28
56 -18 52 9 -3 35 -11 59 -17z m-824 -72 c-8 -13 -18 -40 -22 -61 -7 -36 -8
-38 -25 -23 -24 22 -28 20 -36 -14 -5 -25 -9 -28 -24 -18 -15 9 -29 1 -87 -45
-38 -31 -70 -54 -72 -52 -6 6 53 88 85 116 15 15 60 44 98 64 39 21 74 42 80
46 16 16 18 10 3 -13z m33 -48 c-6 -69 -14 -78 -82 -94 -24 -5 -26 -3 -21 19
5 26 16 32 27 15 14 -23 33 -8 39 31 6 39 34 105 41 97 1 -1 0 -32 -4 -68z
m-381 17 c0 -15 -3 -16 -22 -6 -13 7 -36 16 -53 20 -23 6 -19 7 22 6 43 -2 53
-5 53 -20z m1047 -44 c32 -103 56 -219 48 -242 -8 -25 -53 -81 -66 -81 -4 0
-6 7 -3 15 4 9 -6 25 -25 41 -30 25 -31 29 -31 106 l0 80 -35 -4 c-19 -2 -35
-4 -35 -3 0 0 25 26 55 59 30 32 55 67 55 77 0 39 17 17 37 -48z m-352 -67
c26 -26 39 -86 32 -156 -3 -41 -4 -39 -5 15 -4 115 -32 165 -85 149 -12 -3
-42 -22 -67 -42 -70 -55 -79 -59 -30 -13 44 41 92 70 118 71 7 0 24 -11 37
-24z m-437 -11 c-7 -7 -112 -44 -116 -41 -2 2 16 17 40 34 33 23 47 28 61 20
10 -5 17 -11 15 -13z m286 11 c-3 -8 -18 -22 -32 -32 -27 -17 -27 -17 2 15 33
35 38 37 30 17z m382 -102 c20 -42 34 -78 32 -80 -2 -2 -20 33 -40 76 -20 44
-34 80 -32 80 3 0 21 -34 40 -76z m-79 -20 c15 -34 26 -78 29 -117 l3 -62 -9
62 c-14 100 -68 204 -71 136 -1 -18 -3 -22 -6 -10 -6 23 3 47 17 47 6 0 23
-25 37 -56z m-225 13 c44 -43 99 -109 95 -113 -1 -2 -25 3 -52 12 -28 8 -95
19 -149 25 -73 7 -107 16 -129 31 l-30 21 54 15 c30 8 79 15 110 15 41 1 55 5
52 14 -9 23 15 13 49 -20z m-262 13 c-14 -4 -36 -8 -50 -8 -22 0 -22 1 5 8 17
4 39 8 50 8 16 0 15 -2 -5 -8z m-83 -16 c-3 -3 -12 -4 -19 -1 -8 3 -5 6 6 6
11 1 17 -2 13 -5z m-40 -10 c-3 -3 -12 -4 -19 -1 -8 3 -5 6 6 6 11 1 17 -2 13
-5z m-276 -34 c-13 -11 -28 -20 -35 -20 -6 0 3 9 19 19 39 25 46 25 16 1z
m-54 -14 c0 -7 -16 -18 -35 -24 -37 -12 -36 -8 5 19 16 10 28 18 29 18 0 1 1
-5 1 -13z m96 -20 c-3 -16 -10 -23 -19 -19 -17 6 -18 15 -2 31 19 19 26 14 21
-12z m812 -38 l7 -41 19 24 19 24 0 -37 c0 -20 3 -45 6 -55 5 -14 4 -15 -4 -4
-7 10 -10 5 -10 -20 0 -32 -28 -119 -39 -119 -2 0 -13 5 -24 11 -22 11 -100
32 -159 43 -28 5 -39 14 -58 49 -12 24 -44 67 -69 96 l-47 53 55 -7 c30 -4 90
-19 134 -33 44 -15 84 -26 89 -27 5 0 15 18 23 40 24 71 22 68 37 56 8 -7 18
-31 21 -53z m185 -35 c3 3 6 -14 6 -36 l2 -42 -18 50 c-26 76 -32 104 -12 62
9 -21 19 -36 22 -34z m-1025 40 c20 -15 19 -15 -5 -9 -14 3 -34 6 -45 6 -17 0
-17 2 -5 10 21 13 32 12 55 -7z m192 -17 c27 -19 76 -48 111 -66 34 -17 62
-35 62 -41 0 -15 -11 -11 -85 30 -110 59 -156 91 -150 101 9 14 10 14 62 -24z
m360 -125 c67 -102 86 -156 80 -221 -12 -110 -56 -180 -91 -145 -19 19 -56
118 -56 150 0 13 -4 27 -10 30 -6 4 -10 -10 -10 -34 0 -55 -13 -84 -62 -142
-52 -61 -97 -90 -139 -91 -26 -1 -41 8 -79 50 -27 29 -55 52 -64 52 -29 0 -17
18 32 49 38 25 51 41 65 80 20 59 86 135 138 162 22 11 39 25 39 31 0 6 10 48
22 92 l21 80 40 -45 c21 -24 55 -68 74 -98z m612 62 c1 22 4 22 61 -9 67 -37
140 -143 140 -205 0 -12 22 -47 50 -79 l49 -57 -22 -20 c-12 -11 -39 -23 -59
-27 -31 -6 -37 -4 -43 14 -7 22 -20 26 -30 9 -5 -7 -14 -4 -26 7 -18 16 -19
16 -19 -12 0 -44 17 -56 49 -36 l26 16 -25 -28 -25 -27 -18 22 c-11 13 -17 35
-16 53 3 40 -18 131 -43 179 -11 22 -21 37 -23 35 -2 -1 1 -28 6 -58 12 -78 4
-221 -15 -259 -14 -27 -60 -61 -83 -61 -4 0 -8 37 -9 83 0 45 -3 118 -6 162
-4 54 -4 67 2 40 5 -22 12 -91 16 -152 4 -62 10 -113 13 -113 4 0 17 7 29 16
24 16 58 74 44 74 -5 0 -19 33 -32 73 -13 39 -32 78 -43 86 -17 12 -19 22 -14
87 3 41 1 74 -3 74 -15 0 -28 33 -36 88 l-6 51 35 14 c19 8 38 21 43 28 6 10
12 -2 20 -36 7 -27 13 -42 13 -32z m-211 -55 c8 -8 11 -40 10 -87 l-2 -76 -3
70 c-5 102 -11 108 -38 41 -21 -53 -22 -61 -10 -80 8 -11 15 -15 15 -8 0 6 4
12 10 12 13 0 4 -98 -12 -118 -6 -10 -20 -27 -31 -38 l-18 -21 -84 31 c-46 18
-88 35 -92 39 -11 12 -61 167 -53 167 16 0 156 -51 177 -66 20 -13 27 -13 40
-2 18 14 63 110 63 133 0 18 12 19 28 3z m116 -116 c4 -32 0 -22 -14 33 -10
44 -19 85 -18 90 0 22 27 -78 32 -123z m-1249 -59 c15 -16 36 -46 46 -68 l18
-40 -27 -3 c-35 -5 -59 -27 -67 -63 -4 -16 -10 -29 -14 -29 -11 0 -54 207 -46
220 12 20 62 10 90 -17z m1883 19 c10 -7 9 -24 -3 -87 -8 -43 -17 -80 -19 -82
-2 -3 -9 5 -16 16 -12 23 -57 28 -92 10 -18 -10 -19 -8 -13 13 30 98 97 159
143 130z m-751 -34 c-3 -8 -6 -5 -6 6 -1 11 2 17 5 13 3 -3 4 -12 1 -19z
m-300 -70 c-3 -8 -6 -5 -6 6 -1 11 2 17 5 13 3 -3 4 -12 1 -19z m144 -49 c90
-45 89 -45 145 20 40 47 83 3 71 -73 -6 -40 -47 -136 -57 -136 -4 0 4 23 18
50 32 66 41 140 18 160 -15 12 -20 10 -39 -8 -17 -17 -19 -24 -9 -34 7 -7 12
-23 12 -36 0 -13 4 -20 10 -17 17 10 11 -22 -12 -70 l-22 -45 -85 0 c-54 1
-92 5 -103 13 -12 9 -21 44 -30 115 -8 56 -10 102 -6 102 5 0 45 -18 89 -41z
m-134 -6 c-3 -10 -5 -4 -5 12 0 17 2 24 5 18 2 -7 2 -21 0 -30z m-767 -15 c11
-6 8 -7 -9 -2 -20 5 -23 3 -18 -10 4 -10 3 -15 -2 -12 -4 3 -19 -18 -32 -47
-21 -46 -27 -52 -48 -47 -21 5 -22 7 -7 19 9 7 21 32 27 55 18 67 37 76 89 44z
m101 11 c19 -10 19 -12 -15 -49 -46 -51 -58 -76 -51 -103 5 -17 4 -18 -4 -7
-5 8 -25 14 -45 14 -35 0 -49 17 -26 31 6 4 21 23 34 43 30 46 63 82 77 82 6
0 19 -5 30 -11z m1540 -11 c11 -13 32 -39 45 -60 13 -20 28 -39 34 -43 23 -14
9 -31 -26 -31 -20 0 -40 -6 -45 -14 -8 -11 -9 -10 -4 7 7 27 -5 52 -51 103
-32 35 -33 39 -17 49 27 16 40 13 64 -11z m107 10 c5 -7 15 -30 20 -52 6 -21
18 -46 27 -56 15 -16 14 -18 -9 -22 -20 -4 -26 0 -32 21 -4 14 -6 30 -5 34 1
4 -6 7 -15 5 -9 -2 -19 4 -21 12 -4 13 -3 13 7 0 10 -13 11 -12 6 3 -3 10 -6
21 -6 23 0 3 -4 2 -10 -1 -6 -4 -7 1 -3 11 5 13 2 15 -18 10 -18 -4 -17 -2 6
9 37 18 40 18 53 3z m-431 -20 c-3 -8 -6 -5 -6 6 -1 11 2 17 5 13 3 -3 4 -12
1 -19z m-745 -30 c-23 -23 110 -98 174 -98 21 0 23 5 27 63 l3 62 2 -67 c2
-76 -2 -80 -68 -63 -53 14 -83 28 -128 62 -27 21 -31 27 -21 44 6 12 13 18 17
15 3 -4 0 -12 -6 -18z m-611 -21 c-10 -9 -11 -8 -5 6 3 10 9 15 12 12 3 -3 0
-11 -7 -18z m275 -2 c40 -30 58 -61 50 -82 -6 -14 -9 -14 -26 2 -11 10 -20 23
-20 28 0 6 10 2 21 -9 16 -14 21 -15 17 -4 -2 8 -15 20 -27 26 -12 6 -32 21
-45 33 -25 23 -45 29 -27 7 13 -16 2 -55 -23 -75 -9 -7 -13 -18 -10 -23 4 -6
10 -5 15 3 7 11 9 11 9 -2 0 -9 -8 -23 -17 -30 -15 -12 -16 -12 -11 3 8 19
-20 48 -45 48 -25 0 -22 7 26 55 49 51 68 54 113 20z m1322 -19 c47 -49 50
-56 25 -56 -25 0 -53 -29 -45 -48 5 -15 4 -15 -11 -3 -9 7 -17 21 -17 30 0 13
2 13 9 2 5 -8 11 -9 15 -3 3 5 -1 16 -10 23 -25 20 -36 59 -23 75 18 22 -2 16
-27 -7 -13 -12 -33 -27 -45 -33 -12 -6 -25 -18 -27 -26 -4 -11 1 -10 17 4 11
11 21 15 21 9 0 -17 -37 -45 -45 -34 -11 19 4 48 41 80 47 42 71 39 122 -13z
m29 37 c-4 -3 -2 -12 4 -20 8 -9 8 -13 1 -13 -6 0 -14 5 -17 10 -6 10 2 30 12
30 4 0 3 -3 0 -7z m-1482 -22 c-3 -6 -11 -11 -17 -11 -6 0 -6 6 2 15 14 17 26
13 15 -4z m91 -57 c-4 -9 -9 -15 -11 -12 -3 3 -3 13 1 22 4 9 9 15 11 12 3 -3
3 -13 -1 -22z m1304 -5 c0 -6 -4 -7 -10 -4 -5 3 -10 11 -10 16 0 6 5 7 10 4 6
-3 10 -11 10 -16z m-1610 -13 c0 -3 -5 -17 -10 -33 l-10 -28 20 25 c24 31 25
16 1 -29 -18 -33 -19 -34 -30 -13 -12 23 -15 65 -4 75 7 8 33 10 33 3z m1938
-28 c2 -15 -2 -37 -9 -49 -11 -22 -12 -22 -30 12 -24 45 -23 60 1 29 l20 -25
-10 28 c-13 37 -13 39 8 35 10 -2 18 -14 20 -30z m-108 -29 c0 -23 -19 -73
-25 -67 -11 10 -32 98 -25 98 5 0 11 -8 13 -17 3 -11 5 -5 6 12 2 29 2 29 16
11 8 -11 15 -28 15 -37z m-1729 19 c1 -17 2 -19 6 -5 2 9 8 17 13 17 7 0 -15
-98 -25 -108 -8 -9 -26 72 -21 94 8 30 26 32 27 2z m109 16 c0 -3 -5 -15 -11
-27 -10 -21 -9 -21 10 2 24 27 30 6 6 -25 -8 -10 -14 -26 -14 -34 0 -10 2 -11
6 -2 3 8 32 12 92 12 92 0 108 -5 90 -26 -13 -16 -52 -453 -46 -519 l5 -50
-174 3 -175 3 15 27 c9 16 26 119 41 247 32 266 31 266 49 259 8 -3 14 1 13 8
-2 57 32 68 53 17 9 -21 15 -27 21 -18 4 8 4 18 0 24 -17 20 -21 53 -12 79 9
22 31 37 31 20z m1511 -21 c6 -15 6 -36 1 -51 l-8 -26 -22 36 c-28 45 -29 68
-1 37 19 -23 20 -23 10 -2 -14 27 -14 33 -1 33 6 0 15 -12 21 -27z m-2033 -33
c57 -11 141 -20 187 -20 74 0 86 -3 98 -21 l15 -21 7 21 c7 24 55 30 55 7 0
-8 -4 -16 -9 -18 -13 -4 -29 -131 -19 -157 7 -20 4 -21 -57 -21 -64 0 -80 10
-56 35 4 6 11 22 15 38 6 27 6 27 -49 27 -30 0 -55 -3 -55 -6 0 -8 -49 -301
-56 -336 l-6 -28 63 0 62 0 -5 45 -6 45 64 0 c63 0 74 -6 54 -26 -17 -17 -32
-132 -20 -154 10 -19 7 -20 -114 -20 l-124 0 -104 -60 c-56 -32 -104 -55 -106
-50 -2 5 10 26 27 47 87 110 122 203 158 417 l18 108 -50 46 c-28 25 -74 61
-102 80 -29 19 -50 38 -47 43 5 9 5 9 162 -21z m2675 24 c4 -4 -31 -35 -76
-69 -45 -34 -95 -78 -109 -97 l-27 -36 24 -138 c14 -77 30 -155 36 -174 18
-55 64 -142 101 -191 19 -24 37 -52 41 -62 7 -18 5 -18 -26 1 -17 11 -76 45
-130 76 l-99 56 -100 0 c-98 0 -100 0 -95 22 4 12 -9 135 -28 273 -20 137 -36
259 -38 270 -1 16 5 21 29 23 24 2 33 -2 41 -20 l10 -23 12 23 c11 20 19 22
94 22 45 1 136 11 202 24 66 14 123 25 126 25 3 1 9 -2 12 -5z m-1171 -122
l-4 -88 34 -18 c33 -18 36 -18 62 -1 26 17 27 21 23 84 -2 36 -7 76 -12 89 -7
21 -5 22 51 22 l59 0 0 -118 c0 -122 -4 -139 -38 -151 -18 -7 -17 -9 15 -29
l35 -22 7 -122 c4 -68 11 -124 16 -126 6 -2 10 -10 10 -18 0 -11 -15 -14 -63
-14 l-63 0 4 104 4 103 -32 23 c-32 23 -33 23 -66 5 l-34 -18 0 -88 c0 -48 5
-91 10 -94 6 -3 10 -13 10 -21 0 -11 -15 -14 -65 -14 -60 0 -80 9 -54 26 8 4
9 44 4 129 l-7 122 32 23 31 22 -30 19 c-30 18 -31 20 -32 101 -1 82 -2 91
-15 136 -6 21 -4 22 53 22 l59 0 -4 -88z m-645 58 c-3 -13 12 -51 42 -106 l48
-86 7 81 c5 51 3 87 -3 100 -6 11 -11 22 -11 25 0 3 29 6 65 6 69 0 71 -1 55
-29 -13 -25 -30 -523 -19 -535 24 -26 8 -36 -56 -36 -50 0 -65 3 -65 14 0 8 5
18 10 21 6 3 10 41 10 84 0 74 -2 82 -45 156 -24 43 -46 84 -48 89 -10 27 -15
-10 -24 -159 -6 -89 -6 -164 -2 -169 24 -27 8 -36 -62 -36 l-70 0 15 28 c17
32 52 481 42 537 l-7 35 62 0 c57 0 61 -2 56 -20z m513 -46 c0 -52 -3 -64 -12
-56 -7 6 -43 12 -81 14 l-67 3 0 -67 0 -68 60 0 60 0 0 -66 c0 -52 -3 -64 -12
-56 -7 6 -35 12 -63 13 l-50 3 -3 -66 -3 -66 77 -4 c42 -2 78 0 81 5 13 22 23
0 23 -53 l0 -60 -145 0 c-112 0 -145 3 -145 13 0 7 4 17 9 23 11 11 17 500 6
532 l-7 22 136 0 136 0 0 -66z m618 39 c0 -16 36 -129 80 -253 98 -275 98
-276 111 -285 25 -15 7 -24 -59 -27 -69 -3 -71 -2 -65 19 3 12 1 33 -5 47 -9
24 -14 26 -74 26 -61 0 -64 -1 -70 -26 -4 -15 -2 -32 3 -37 24 -24 9 -32 -59
-32 -47 0 -70 4 -70 12 0 6 4 14 9 17 9 6 10 7 52 276 16 107 30 216 30 243
l1 47 58 0 c57 0 59 -1 58 -27z m-1083 -663 c0 -18 -6 -26 -22 -28 -13 -2 -23
-10 -23 -18 0 -8 -4 -14 -10 -14 -5 0 -10 21 -10 46 0 45 0 45 33 42 27 -2 32
-7 32 -28z m45 -5 c0 -28 4 -35 20 -35 11 0 20 -4 20 -10 0 -5 -13 -10 -30
-10 -29 0 -30 2 -30 45 0 25 5 45 10 45 6 0 10 -16 10 -35z m133 -10 c12 -34
13 -45 3 -45 -6 0 -17 5 -24 12 -9 9 -15 9 -24 0 -29 -29 -35 -11 -13 42 20
48 40 45 58 -9z m47 30 c0 -8 4 -15 9 -15 5 0 11 7 15 15 3 8 12 15 19 15 11
0 9 -10 -7 -45 -21 -45 -36 -57 -36 -30 0 9 -7 29 -15 45 -14 27 -14 30 0 30
8 0 15 -7 15 -15z m153 -5 c3 -11 10 -20 17 -20 7 0 14 9 17 20 9 36 23 21 23
-25 0 -46 -14 -61 -23 -25 -3 11 -10 20 -17 20 -7 0 -14 -9 -17 -20 -9 -36
-23 -21 -23 25 0 46 14 61 23 25z m145 -7 c5 -16 13 -36 17 -45 5 -13 2 -18
-8 -18 -8 0 -17 6 -20 13 -3 10 -9 10 -26 0 -36 -22 -36 -17 -10 55 12 30 35
28 47 -5z m107 -8 c0 -16 4 -36 8 -42 5 -9 3 -13 -8 -13 -8 0 -18 7 -21 15 -4
8 -10 15 -15 15 -5 0 -9 -7 -9 -15 0 -8 -4 -15 -10 -15 -5 0 -10 21 -10 46 0
45 0 45 33 42 28 -3 32 -6 32 -33z m103 23 c7 -7 12 -21 12 -33 0 -30 -19 -45
-57 -45 -32 0 -33 1 -33 45 0 44 1 45 33 45 18 0 38 -5 45 -12z m-572 -169
c17 -19 141 -115 171 -132 11 -7 154 93 182 126 7 9 18 17 24 17 6 0 1 -10
-11 -23 -12 -13 -22 -29 -22 -37 0 -8 -10 -25 -22 -39 l-23 -24 23 15 c12 8
43 34 67 57 39 37 50 42 75 36 17 -4 30 -10 30 -15 0 -16 -128 -127 -217 -187
-50 -35 -94 -63 -97 -63 -3 0 -6 16 -6 35 0 29 -5 37 -32 51 -21 10 -28 11
-20 3 6 -7 12 -21 12 -31 0 -9 8 -22 18 -27 9 -6 12 -11 5 -11 -32 -1 -293
204 -293 230 0 6 83 35 111 39 3 1 14 -8 25 -20z"/>
<path d="M1239 2575 c-27 -65 -24 -85 5 -43 9 13 33 28 54 34 20 6 36 16 34
23 -1 7 1 10 5 8 5 -3 19 0 33 5 23 10 20 11 -35 24 -33 7 -62 13 -65 13 -3 0
-17 -28 -31 -64z"/>
<path d="M389 2378 c-17 -24 -40 -61 -50 -83 l-20 -40 25 30 c14 16 23 31 21
34 -3 2 11 26 30 53 19 26 33 48 30 48 -3 0 -19 -19 -36 -42z"/>
<path d="M3864 2392 c21 -29 36 -56 32 -59 -3 -3 11 -29 31 -57 51 -71 59 -78
34 -28 -12 23 -26 42 -32 42 -6 0 -8 4 -5 9 6 9 -67 126 -87 138 -6 4 6 -17
27 -45z"/>
<path d="M2270 2938 c0 -18 18 -34 28 -24 3 4 -2 14 -11 23 -16 16 -17 16 -17
1z"/>
<path d="M2267 2853 c-7 -11 10 -40 18 -31 4 4 3 14 -3 24 -5 9 -12 12 -15 7z"/>
<path d="M2322 2838 c2 -13 8 -23 13 -23 6 0 11 10 13 23 2 15 -2 22 -13 22
-11 0 -15 -7 -13 -22z"/>
<path d="M2435 2670 c-8 -13 3 -50 16 -50 12 0 12 47 0 55 -5 3 -12 1 -16 -5z"/>
<path d="M2453 2545 c-9 -25 4 -29 17 -6 7 15 7 21 0 21 -6 0 -13 -7 -17 -15z"/>
<path d="M1801 2210 c-17 -17 -31 -38 -31 -46 0 -23 30 -16 62 16 29 29 33 50
11 57 -6 2 -25 -10 -42 -27z"/>
<path d="M1709 2164 c-21 -24 -34 -64 -21 -64 14 0 44 49 40 67 -3 13 -5 12
-19 -3z"/>
<path d="M1725 2086 c-18 -13 -18 -14 4 -21 25 -8 47 7 37 24 -9 14 -18 14
-41 -3z"/>
<path d="M2680 2282 c0 -10 7 -28 16 -41 22 -30 39 -14 23 22 -14 32 -39 44
-39 19z"/>
<path d="M2722 2175 c1 -16 9 -30 16 -33 18 -6 15 33 -4 49 -14 11 -15 9 -12
-16z"/>
<path d="M1423 1642 c-29 -2 -53 -8 -53 -13 0 -12 -28 -271 -35 -321 l-5 -38
60 0 60 0 0 35 c0 19 7 103 16 186 8 83 14 152 12 152 -2 1 -27 1 -55 -1z"/>
<path d="M3145 1640 c-1 -3 9 -86 24 -185 l27 -180 57 -3 c31 -2 57 -1 57 1 0
3 -13 86 -30 185 -16 100 -30 182 -30 184 0 5 -102 3 -105 -2z"/>
<path d="M2838 1504 c-3 -5 -9 -39 -13 -76 l-7 -68 36 0 c20 0 36 1 36 3 -1
19 -49 147 -52 141z"/>
<path d="M1750 1060 c0 -5 7 -10 15 -10 8 0 15 5 15 10 0 6 -7 10 -15 10 -8 0
-15 -4 -15 -10z"/>
<path d="M1935 1040 c3 -5 8 -10 11 -10 2 0 4 5 4 10 0 6 -5 10 -11 10 -5 0
-7 -4 -4 -10z"/>
<path d="M2380 1060 c0 -5 7 -10 15 -10 8 0 15 5 15 10 0 6 -7 10 -15 10 -8 0
-15 -4 -15 -10z"/>
<path d="M2480 1045 c0 -20 4 -26 18 -23 9 2 17 12 17 23 0 11 -8 21 -17 23
-14 3 -18 -3 -18 -23z"/>
</g>
</svg>
